<svg width="195" height="224" viewBox="0 0 195 224" fill="none" xmlns="http://www.w3.org/2000/svg">
<path d="M19.5091 193.294C18.3549 189.757 17.9585 186.017 18.3456 182.317C18.7327 178.617 19.8947 175.04 21.756 171.819C23.6172 168.598 26.1359 165.805 29.1481 163.622C32.1603 161.439 35.5985 159.915 39.2389 159.149C39.3313 147.913 46.0945 136.98 56.1032 131.875C66.1119 126.771 78.9347 127.721 88.0807 134.243L90.0629 193.489L19.5091 193.294Z" fill="#17B270"/>
<path d="M356.554 193.555C356.554 193.632 281.296 193.689 188.486 193.689C95.6757 193.689 20.4026 193.648 20.4026 193.555C20.4026 193.463 95.6449 193.422 188.486 193.422C281.327 193.422 356.554 193.499 356.554 193.555Z" fill="#263238"/>
<path d="M259.794 168.788H61.12V65.5686H258.618C258.618 65.5686 259.794 169.933 259.794 168.788Z" fill="#F5F5F5"/>
<path d="M186.56 71.7106V117.928H220.966V71.7106C220.966 71.7106 186.56 72.0803 186.56 71.7106Z" fill="#E0E0E0"/>
<path d="M186.56 71.803V78.9924L220.956 79.203V71.7106L186.56 71.803Z" fill="#455A64"/>
<path d="M199.244 82.2994H188.475V93.8436H199.244V82.2994Z" fill="white"/>
<path d="M188.547 96.4317V97.5204H197.257V96.2161L188.547 96.4317Z" fill="white"/>
<path d="M188.475 98.2599V99.3435H197.19V98.0442L188.475 98.2599Z" fill="white"/>
<path d="M48.3743 17.6615V51.4107H270.789V18.0724C270.789 18.0724 47.5629 16.8502 48.3743 17.6615Z" fill="#263238"/>
<path d="M48.3744 33.201V41.2069H270.789V32.7183L48.3744 33.201Z" fill="#EB72AC"/>
<path d="M54.9681 47.6669L55.5535 193.612H62.5581V47.6669C62.5581 47.6669 54.3878 47.0507 54.9681 47.6669Z" fill="#263238"/>
<path d="M87.0122 51.0974V193.689H90.5093V50.4144C90.5093 50.4144 86.4267 51.0974 87.0122 51.0974Z" fill="#263238"/>
<path d="M65.136 70.4678L65.3414 163.586H84.3985L84.0185 70.4678H65.136Z" fill="#EB72AC"/>
<path d="M146.813 155.241H143.223V193.345H146.813V155.241Z" fill="#263238"/>
<path d="M187.639 155.498H100.559C100.166 155.498 99.777 155.42 99.4137 155.27C99.0505 155.119 98.7204 154.899 98.4424 154.621C98.1644 154.343 97.9439 154.013 97.7934 153.649C97.643 153.286 97.5656 152.897 97.5656 152.504C97.5669 151.711 97.8829 150.95 98.4443 150.39C99.0056 149.83 99.7663 149.515 100.559 149.515H187.654C188.446 149.516 189.206 149.832 189.766 150.392C190.326 150.952 190.641 151.712 190.643 152.504C190.643 152.898 190.565 153.288 190.414 153.652C190.263 154.016 190.041 154.346 189.762 154.624C189.483 154.903 189.152 155.123 188.787 155.273C188.423 155.423 188.033 155.499 187.639 155.498Z" fill="#455A64"/>
<path d="M179.211 190.613L179.761 186.505L172.109 185.426L171.241 191.393L171.714 191.491C173.809 191.907 182.39 193.458 183.864 193.232C185.502 192.996 179.211 190.613 179.211 190.613Z" fill="#FF725E"/>
<g opacity="0.3">
<path opacity="0.3" d="M174.025 191.748C174.002 191.087 173.737 190.459 173.28 189.981C172.832 189.506 172.222 189.217 171.57 189.17L171.267 191.306L174.025 191.748Z" fill="white"/>
</g>
<g opacity="0.3">
<path opacity="0.3" d="M182.267 191.891C182.267 191.891 184.455 192.867 184.116 193.206C183.777 193.545 175.047 192.302 171.241 191.414L171.277 191.25L181.456 192.79C181.456 192.79 181.82 191.845 182.267 191.891Z" fill="white"/>
</g>
<path d="M171.159 191.224C171.201 191.24 171.244 191.253 171.288 191.26L171.663 191.337L173.044 191.594C174.215 191.799 175.832 192.066 177.625 192.323C179.417 192.58 181.045 192.775 182.246 192.903L183.643 193.042L184.023 193.073H184.157L184.028 193.047L183.648 193.001L182.21 192.837C181.034 192.693 179.407 192.487 177.589 192.231C175.771 191.974 174.179 191.717 173.008 191.527L171.621 191.301L171.247 191.239L171.159 191.224Z" fill="#263238"/>
<path d="M181.435 192.898C181.527 192.676 181.646 192.465 181.789 192.272C181.954 192.096 182.139 191.939 182.339 191.804C182.09 191.86 181.869 192.004 181.718 192.21C181.541 192.396 181.44 192.641 181.435 192.898Z" fill="#263238"/>
<path d="M179.34 191.435C179.34 191.435 179.484 191.332 179.622 191.173C179.761 191.014 179.853 190.87 179.833 190.854C179.812 190.839 179.689 190.952 179.55 191.111C179.412 191.27 179.319 191.414 179.34 191.435Z" fill="#263238"/>
<path d="M178.765 191.018C178.765 191.018 178.914 190.977 179.063 190.875C179.212 190.772 179.319 190.679 179.304 190.654C179.289 190.628 179.16 190.7 179.011 190.797C178.862 190.895 178.755 190.987 178.765 191.018Z" fill="#263238"/>
<path d="M178.477 190.238C178.597 190.304 178.731 190.341 178.867 190.346C179.003 190.378 179.143 190.378 179.278 190.346C179.155 190.283 179.021 190.246 178.883 190.238C178.749 190.209 178.611 190.209 178.477 190.238Z" fill="#263238"/>
<path d="M178.416 189.709C178.533 189.818 178.683 189.886 178.842 189.904C178.994 189.952 179.157 189.952 179.309 189.904C179.163 189.859 179.014 189.827 178.862 189.807C178.716 189.764 178.567 189.731 178.416 189.709Z" fill="#263238"/>
<path d="M179.694 190.803C179.86 190.857 180.034 190.879 180.208 190.87C180.388 190.87 180.568 190.856 180.747 190.829C180.856 190.814 180.963 190.786 181.065 190.746C181.127 190.722 181.177 190.674 181.204 190.613C181.217 190.577 181.22 190.538 181.212 190.501C181.203 190.464 181.185 190.429 181.158 190.402C180.983 190.284 180.773 190.23 180.563 190.25C180.353 190.27 180.157 190.362 180.007 190.51C179.918 190.596 179.848 190.699 179.802 190.813C179.781 190.855 179.771 190.9 179.771 190.947C179.84 190.8 179.936 190.668 180.054 190.556C180.182 190.442 180.341 190.369 180.511 190.346C180.713 190.308 180.922 190.353 181.091 190.469C181.163 190.536 181.117 190.623 181.024 190.664C180.93 190.7 180.832 190.726 180.732 190.741C180.562 190.776 180.391 190.797 180.218 190.803C179.884 190.813 179.694 190.788 179.694 190.803Z" fill="#263238"/>
<path d="M179.818 190.844C179.892 190.749 179.93 190.63 179.925 190.51C179.926 190.38 179.896 190.252 179.838 190.135C179.806 190.057 179.756 189.989 179.692 189.935C179.627 189.881 179.55 189.844 179.468 189.827C179.443 189.828 179.418 189.835 179.394 189.846C179.371 189.857 179.35 189.872 179.333 189.891C179.316 189.91 179.303 189.933 179.294 189.957C179.286 189.981 179.282 190.007 179.283 190.032C179.283 190.112 179.301 190.191 179.335 190.264C179.384 190.381 179.448 190.491 179.525 190.592C179.658 190.767 179.771 190.839 179.776 190.828C179.782 190.818 179.694 190.731 179.581 190.556C179.514 190.453 179.459 190.343 179.417 190.228C179.361 190.115 179.34 189.925 179.468 189.919C179.597 189.914 179.699 190.063 179.761 190.171C179.817 190.276 179.85 190.392 179.859 190.51C179.854 190.622 179.84 190.734 179.818 190.844Z" fill="#263238"/>
<path d="M171.611 189.154C171.611 189.154 171.837 189.154 172.176 189.257C172.62 189.371 173.022 189.607 173.336 189.94C173.651 190.273 173.865 190.687 173.953 191.137C174.02 191.481 173.999 191.701 174.02 191.701C174.029 191.65 174.029 191.598 174.02 191.547C174.036 191.407 174.036 191.266 174.02 191.126C173.947 190.657 173.734 190.22 173.409 189.873C173.081 189.53 172.66 189.293 172.197 189.19C172.058 189.16 171.917 189.143 171.776 189.139L171.611 189.154Z" fill="#263238"/>
<path d="M172.859 186.084C172.731 186.591 172.633 187.105 172.566 187.624C172.47 188.145 172.405 188.672 172.371 189.201C172.497 188.693 172.593 188.179 172.659 187.66C172.755 187.139 172.822 186.612 172.859 186.084Z" fill="#263238"/>
<path d="M175.093 191.137C175.445 191.277 175.815 191.369 176.192 191.409C176.566 191.48 176.947 191.503 177.327 191.476C177.327 191.45 176.813 191.409 176.207 191.316C175.601 191.224 175.098 191.111 175.093 191.137Z" fill="#263238"/>
<path d="M173.594 190.926C173.594 190.926 173.594 191.034 173.655 191.157C173.717 191.28 173.701 191.383 173.732 191.388C173.763 191.393 173.789 191.27 173.732 191.132C173.676 190.993 173.614 190.906 173.594 190.926Z" fill="#263238"/>
<path d="M173.131 190.14C173.106 190.14 173.131 190.243 173.214 190.335C173.296 190.428 173.352 190.489 173.373 190.474C173.393 190.459 173.373 190.371 173.291 190.279C173.208 190.186 173.152 190.125 173.131 190.14Z" fill="#263238"/>
<path d="M172.366 189.704C172.366 189.73 172.469 189.745 172.577 189.801C172.685 189.858 172.757 189.93 172.777 189.914C172.798 189.899 172.751 189.786 172.618 189.719C172.484 189.652 172.361 189.678 172.366 189.704Z" fill="#263238"/>
<path d="M171.812 189.473C171.812 189.473 171.837 189.54 171.899 189.576C171.961 189.612 172.018 189.617 172.028 189.576C172.038 189.535 172.002 189.509 171.946 189.478C171.889 189.447 171.827 189.447 171.812 189.473Z" fill="#263238"/>
<path d="M199.742 169.794L197.688 166.199L190.971 170.015L193.929 175.274L194.36 175.068C196.271 174.118 204.015 170.102 205.042 169.024C206.182 167.843 199.742 169.794 199.742 169.794Z" fill="#FF725E"/>
<g opacity="0.3">
<path opacity="0.3" d="M196.328 173.862C195.908 173.35 195.313 173.013 194.659 172.917C194.014 172.814 193.354 172.957 192.81 173.317L193.873 175.197L196.328 173.862Z" fill="white"/>
</g>
<g opacity="0.3">
<path opacity="0.3" d="M202.947 168.942C202.947 168.942 205.273 168.382 205.212 168.854C205.15 169.327 197.473 173.671 193.914 175.294L193.837 175.14L202.834 170.143C202.834 170.143 202.562 169.178 202.947 168.942Z" fill="white"/>
</g>
<path d="M193.739 175.197L193.862 175.145L194.206 174.976L195.459 174.334C196.512 173.79 197.955 173.009 199.532 172.121C201.108 171.232 202.515 170.39 203.527 169.769L204.718 169.024L205.042 168.819L205.15 168.742C205.108 168.756 205.068 168.777 205.032 168.803L204.703 168.993L203.491 169.712C202.464 170.318 201.062 171.145 199.486 172.039C197.909 172.932 196.471 173.713 195.429 174.278L194.191 174.945L193.852 175.125L193.739 175.197Z" fill="#263238"/>
<path d="M192.835 173.281C193.002 173.184 193.173 173.094 193.349 173.014C193.772 172.833 194.237 172.775 194.691 172.847C195.146 172.918 195.57 173.117 195.917 173.42C196.184 173.651 196.302 173.841 196.317 173.831C196.301 173.78 196.275 173.733 196.24 173.692C196.158 173.577 196.065 173.471 195.963 173.374C195.618 173.048 195.183 172.833 194.715 172.758C194.245 172.686 193.765 172.753 193.334 172.953C193.206 173.016 193.084 173.09 192.969 173.174C192.871 173.235 192.83 173.276 192.835 173.281Z" fill="#263238"/>
<path d="M191.968 170.087C192.179 170.573 192.421 171.044 192.692 171.499C192.932 171.973 193.201 172.431 193.498 172.87C193.284 172.386 193.042 171.915 192.774 171.458C192.532 170.986 192.262 170.528 191.968 170.087Z" fill="#263238"/>
<path d="M194.638 173.132C194.638 173.132 194.715 173.204 194.823 173.235C194.931 173.266 195.028 173.271 195.033 173.235C195.039 173.199 194.956 173.168 194.849 173.138C194.741 173.107 194.643 173.112 194.638 173.132Z" fill="#263238"/>
<path d="M193.77 173.256C193.77 173.256 193.873 173.225 193.991 173.204C194.109 173.184 194.212 173.204 194.222 173.168C194.232 173.132 194.119 173.081 193.975 173.112C193.832 173.143 193.75 173.24 193.77 173.256Z" fill="#263238"/>
<path d="M193.185 173.41C193.185 173.436 193.246 173.446 193.319 173.436C193.391 173.425 193.437 173.4 193.432 173.374C193.427 173.348 193.37 173.333 193.303 173.343C193.236 173.353 193.185 173.384 193.185 173.41Z" fill="#263238"/>
<path d="M173.933 112.674C173.933 112.674 176.901 124.604 177.83 124.095C182.883 121.327 187.89 116.228 189.765 114.22C189.837 113.948 189.908 113.645 189.98 113.301C190.059 112.9 190.071 112.489 190.016 112.084C189.971 111.579 189.855 111.083 189.672 110.61C189.467 110.194 189.857 109.737 190.227 109.927C190.597 110.117 191.197 111.252 191.254 112.751C191.31 114.251 192.692 112.366 193.205 111.683C193.719 111 195.403 108.977 195.732 108.977C196.215 108.977 196.307 109.491 195.783 110.168C195.259 110.846 193.811 112.952 194.176 113.214C194.54 113.476 197.098 109.973 197.098 109.973C197.098 109.973 197.529 109.131 197.961 109.424C198.736 109.937 195.742 113.455 195.449 113.779C195.244 114.01 195.629 114.292 195.84 114.051C196.05 113.809 198.315 110.502 199.111 111.026C199.722 111.427 196.677 113.938 196.574 114.888C196.471 115.838 198.7 112.741 199.265 113.152C199.481 113.301 199.614 113.445 198.089 115.032C196.805 116.253 195.454 117.401 194.042 118.472C189.996 122.991 175.042 137.529 171.986 129.734C168.35 120.46 168.905 114.467 168.905 114.467L173.933 112.674Z" fill="#FFBE9D"/>
<path d="M152.642 116.952L153.556 126.386L152.477 132.985L150.937 136.62L171.118 134.453L169.444 125.985L169.603 123.115C170.02 125.001 170.534 126.864 171.144 128.697C172.207 131.67 174.179 132.291 174.179 132.291C180.855 133.765 193.693 119.397 193.693 119.397L189.123 113.876L178.272 123.202C178.35 123.109 178.393 122.992 178.393 122.871C178.393 122.749 178.35 122.632 178.272 122.539C177.994 122.206 177.496 123.202 177.496 123.202L174.959 114.087C174.959 114.087 174.22 105.901 166.199 105.511H159.523C156.458 106.135 153.66 107.69 151.512 109.964C149.364 112.238 147.971 115.12 147.522 118.215C147.394 119.152 147.322 120.095 147.306 121.04C147.116 132.338 152.652 134.854 152.652 134.854L155.733 125.579L152.642 116.952Z" fill="#17B270"/>
<path d="M168.859 123.428C169.175 123.186 169.439 122.882 169.634 122.534C170.158 121.73 170.488 120.815 170.598 119.862C170.709 118.908 170.597 117.942 170.271 117.04C170.157 116.663 169.968 116.314 169.716 116.012C169.68 116.012 169.896 116.428 170.107 117.111C170.377 117.999 170.465 118.932 170.363 119.854C170.257 120.775 169.961 121.665 169.496 122.468C169.141 123.063 168.859 123.402 168.859 123.428Z" fill="#263238"/>
<path d="M170.805 132.445C170.489 132.305 170.182 132.146 169.886 131.968C167.831 130.854 165.633 130.026 163.354 129.508C162.589 129.338 161.772 129.19 160.925 129.087C160.504 129.035 160.067 128.989 159.626 128.964C159.184 128.938 158.737 128.933 158.27 128.856C157.787 128.798 157.341 128.566 157.017 128.204C156.734 127.841 156.539 127.417 156.447 126.966C156.262 126.108 156.19 125.287 156.098 124.496C155.955 123.1 155.884 121.698 155.887 120.295C155.887 119.099 155.949 118.133 156.005 117.466C156.005 117.132 156.057 116.87 156.082 116.695C156.084 116.606 156.1 116.518 156.128 116.433C156.146 116.776 156.146 117.118 156.128 117.461C156.128 118.128 156.077 119.094 156.098 120.285C156.118 121.476 156.19 122.894 156.365 124.46C156.457 125.24 156.544 126.078 156.724 126.894C156.803 127.304 156.979 127.69 157.238 128.019C157.52 128.335 157.91 128.537 158.331 128.584C158.763 128.65 159.215 128.65 159.661 128.686C160.108 128.722 160.545 128.763 160.971 128.815C161.797 128.919 162.616 129.068 163.426 129.261C164.794 129.581 166.131 130.021 167.421 130.576C168.293 130.948 169.139 131.379 169.953 131.865C170.24 132.029 170.466 132.178 170.605 132.276C170.677 132.325 170.744 132.382 170.805 132.445Z" fill="#263238"/>
<path d="M155.548 130.314C155.666 129.818 155.937 129.373 156.324 129.04C156.71 128.708 157.192 128.507 157.7 128.466C157.7 128.543 157.089 128.727 156.498 129.241C155.908 129.755 155.62 130.345 155.548 130.314Z" fill="#263238"/>
<path d="M162.835 87.64C164.115 87.1916 165.506 87.1699 166.8 87.5784C167.441 87.7917 168.015 88.1688 168.465 88.6723C168.915 89.1759 169.226 89.7883 169.367 90.449C169.475 91.1115 169.367 91.8253 169.696 92.4107C170.025 92.9961 170.723 93.3556 171.272 93.8229C171.685 94.1963 171.995 94.6684 172.175 95.1948C172.354 95.7212 172.397 96.2847 172.299 96.8322C172.11 97.409 171.996 98.008 171.961 98.6141C172.058 99.2303 172.355 99.7972 172.808 100.227C173.26 100.65 173.653 101.134 173.974 101.664C174.132 101.931 174.209 102.238 174.197 102.548C174.184 102.858 174.081 103.158 173.902 103.41C173.45 103.924 172.654 103.924 171.966 103.924C169.563 103.913 167.162 104.049 164.776 104.33" fill="#ED8024"/>
<path d="M166.204 105.403C166.204 104.227 166.173 103.22 166.173 103.22C166.173 103.22 169.044 102.856 169.172 99.9288C169.3 97.0016 169.003 90.2436 169.003 90.2436L163.723 87.7068L159.102 92.9653L159.266 105.516C159.277 106.425 159.644 107.293 160.288 107.933C160.933 108.574 161.803 108.936 162.712 108.941C163.175 108.945 163.635 108.855 164.063 108.678C164.491 108.501 164.88 108.24 165.205 107.91C165.531 107.58 165.787 107.188 165.959 106.758C166.13 106.327 166.213 105.866 166.204 105.403Z" fill="#FFBE9D"/>
<path d="M168.263 95.1785C168.263 95.2514 168.241 95.3227 168.201 95.3834C168.161 95.444 168.103 95.4914 168.036 95.5196C167.969 95.5477 167.895 95.5553 167.823 95.5414C167.751 95.5276 167.686 95.4929 167.634 95.4417C167.582 95.3905 167.546 95.3251 167.531 95.2537C167.516 95.1823 167.523 95.1082 167.55 95.0405C167.577 94.9729 167.624 94.9148 167.684 94.8735C167.744 94.8323 167.815 94.8098 167.888 94.8088C167.937 94.8081 167.986 94.8171 168.031 94.8354C168.077 94.8537 168.118 94.8808 168.153 94.9152C168.188 94.9496 168.216 94.9906 168.234 95.0358C168.253 95.081 168.263 95.1295 168.263 95.1785Z" fill="#263238"/>
<path d="M168.859 94.7626C168.813 94.8139 168.54 94.5829 168.15 94.5674C167.76 94.552 167.462 94.7523 167.421 94.6958C167.38 94.6393 167.447 94.5828 167.575 94.4904C167.746 94.371 167.951 94.3114 168.159 94.3206C168.367 94.3299 168.566 94.4077 168.725 94.5418C168.859 94.6445 168.884 94.742 168.859 94.7626Z" fill="#263238"/>
<path d="M163.98 95.1785C163.979 95.2501 163.957 95.3199 163.917 95.3791C163.876 95.4382 163.819 95.4842 163.753 95.5111C163.686 95.5381 163.614 95.5449 163.543 95.5306C163.473 95.5164 163.409 95.4818 163.358 95.4311C163.307 95.3804 163.273 95.3159 163.258 95.2457C163.244 95.1754 163.251 95.1026 163.278 95.0361C163.305 94.9697 163.351 94.9127 163.41 94.8723C163.469 94.8318 163.539 94.8097 163.611 94.8087C163.709 94.8087 163.803 94.8477 163.872 94.917C163.941 94.9864 163.98 95.0804 163.98 95.1785Z" fill="#263238"/>
<path d="M164.504 94.8396C164.458 94.8858 164.181 94.6547 163.79 94.6393C163.4 94.6239 163.102 94.8242 163.061 94.7728C163.02 94.7215 163.087 94.6599 163.215 94.5674C163.387 94.4485 163.592 94.389 163.801 94.398C164.008 94.4071 164.207 94.4848 164.365 94.6188C164.484 94.7215 164.525 94.8139 164.504 94.8396Z" fill="#263238"/>
<path d="M165.978 98.224C166.186 98.161 166.402 98.1281 166.62 98.1264C166.723 98.1264 166.82 98.1264 166.836 98.0288C166.846 97.9173 166.825 97.8051 166.774 97.7053C166.682 97.4383 166.589 97.1918 166.492 96.8734C166.227 96.1657 166.014 95.4397 165.855 94.7012C166.173 95.3854 166.439 96.0926 166.651 96.8169C166.743 97.1096 166.836 97.3869 166.923 97.654C166.983 97.7875 166.999 97.9368 166.969 98.0802C166.954 98.1163 166.931 98.1485 166.902 98.1743C166.872 98.2001 166.837 98.2188 166.8 98.2291C166.743 98.2358 166.686 98.2358 166.63 98.2291C166.413 98.2546 166.194 98.2529 165.978 98.224Z" fill="#263238"/>
<path d="M166.173 103.22C164.812 103.185 163.49 102.751 162.373 101.973C162.373 101.973 163.267 104.109 166.127 103.939L166.173 103.22Z" fill="#EB996E"/>
<path d="M152.282 101.998C152.599 101.759 152.869 101.463 153.078 101.125C153.35 100.54 153.078 99.8516 152.78 99.2765C152.482 98.7013 152.128 98.0953 152.241 97.4586C152.436 96.3391 153.884 95.8769 154.295 94.8242C154.67 93.8793 154.11 92.7136 154.614 91.8252C155.019 91.1113 155.959 90.8803 156.498 90.2538C156.84 89.7159 157.111 89.1359 157.304 88.5283C157.545 88.0209 157.904 87.5786 158.351 87.2385C158.798 86.8985 159.32 86.6706 159.874 86.574C160.427 86.4775 160.996 86.515 161.531 86.6835C162.067 86.8519 162.555 87.1465 162.953 87.5423C163.758 87.3374 164.596 87.2973 165.417 87.4244C166.237 87.5514 167.024 87.8431 167.729 88.2818C168.376 88.6295 168.901 89.1672 169.234 89.8224C169.459 90.431 169.555 91.0798 169.516 91.7276V93.1192C169.528 93.2374 169.506 93.3564 169.455 93.4633C169.389 93.5318 169.309 93.5845 169.22 93.6174C169.131 93.6503 169.035 93.6626 168.941 93.6533L166.794 93.7355C166.647 93.7528 166.498 93.7297 166.363 93.6687C166.252 93.5942 166.163 93.4919 166.105 93.372C166.046 93.2521 166.02 93.1189 166.029 92.9857C166.029 92.7803 166.029 92.3695 166.029 92.2514C165.932 92.7136 165.844 92.8009 165.773 93.0884C165.75 93.2375 165.698 93.3805 165.618 93.5086C165.539 93.6366 165.434 93.7471 165.31 93.8331C165.116 93.9163 164.905 93.9515 164.694 93.9358H163.765C163.61 93.9411 163.456 93.9019 163.323 93.8228C163.24 93.7312 163.182 93.6199 163.154 93.4994C163.126 93.379 163.129 93.2534 163.164 93.1347C163.243 92.82 163.291 92.4984 163.308 92.1744C163.03 92.7187 162.897 93.3966 162.558 93.489C162.214 93.5395 161.864 93.515 161.531 93.4171C161.187 93.3093 160.94 93.2168 160.689 93.1398C160.712 93.2831 160.748 93.424 160.796 93.5609C161.058 94.2644 161.644 94.9423 161.438 95.6664C161.233 96.3904 160.514 96.6421 160.139 97.2069C159.962 97.5347 159.863 97.8986 159.849 98.2707C159.835 98.6428 159.906 99.0132 160.057 99.3535C160.357 100.024 160.621 100.709 160.848 101.408C160.96 101.766 160.969 102.15 160.872 102.513C160.776 102.877 160.579 103.206 160.303 103.462C159.81 103.755 159.237 103.885 158.665 103.831L153.453 103.842C153.117 103.866 152.78 103.829 152.457 103.734C152.295 103.685 152.148 103.595 152.031 103.473C151.914 103.35 151.831 103.2 151.789 103.036C151.783 102.836 151.825 102.638 151.91 102.457C151.996 102.277 152.124 102.12 152.282 101.998Z" fill="#ED8024"/>
<path d="M171.657 100.411C171.657 100.411 171.606 100.36 171.55 100.237C171.472 100.053 171.431 99.856 171.426 99.6566C171.457 98.9222 171.692 98.211 172.104 97.6025C172.356 97.1873 172.554 96.7422 172.695 96.2776C172.84 95.753 172.78 95.1926 172.525 94.7113C172.4 94.4539 172.226 94.2235 172.012 94.0334C171.773 93.8388 171.502 93.6876 171.211 93.5867C170.882 93.4685 170.576 93.2948 170.307 93.0731C170.168 92.9408 170.059 92.7812 169.986 92.6044C169.912 92.4276 169.877 92.2375 169.881 92.0461C169.881 91.6815 169.906 91.3425 169.881 91.019C169.868 90.7002 169.807 90.3851 169.701 90.0844C169.499 89.5009 169.163 88.9732 168.72 88.5438C167.966 87.8195 166.988 87.3723 165.947 87.2754C165.242 87.203 164.53 87.2411 163.836 87.3884C163.323 87.4859 163.076 87.5732 163.071 87.5527C163.066 87.5322 163.133 87.5116 163.256 87.4654C163.439 87.3943 163.626 87.3343 163.816 87.2857C164.516 87.0944 165.244 87.0283 165.967 87.0905C167.06 87.1663 168.094 87.616 168.895 88.3641C169.365 88.8127 169.726 89.3623 169.952 89.9714C170.066 90.3027 170.132 90.6486 170.148 90.9985C170.148 91.3477 170.122 91.6917 170.148 92.0255C170.144 92.1792 170.173 92.332 170.231 92.4742C170.289 92.6165 170.376 92.7452 170.487 92.8523C170.736 93.0484 171.015 93.2028 171.313 93.3094C171.629 93.4289 171.921 93.6027 172.176 93.8229C172.42 94.0361 172.62 94.2941 172.767 94.5829C173.042 95.1208 173.101 95.7438 172.931 96.3238C172.777 96.8018 172.561 97.2577 172.289 97.6795C171.876 98.2557 171.623 98.9306 171.555 99.636C171.546 99.8984 171.581 100.16 171.657 100.411Z" fill="#ED8024"/>
<path d="M151.358 96.6474C151.533 96.743 151.719 96.8171 151.912 96.8682C152.171 96.9206 152.439 96.9076 152.692 96.8305C152.945 96.7534 153.175 96.6146 153.36 96.4265C153.619 96.1321 153.79 95.7706 153.852 95.3837C153.915 94.9968 153.867 94.6 153.715 94.2389C153.491 93.774 153.433 93.2468 153.55 92.7445C153.797 92.2398 154.23 91.8498 154.757 91.6559C155.23 91.4893 155.665 91.2291 156.036 90.8907C156.318 90.5236 156.495 90.0871 156.549 89.6274C156.608 89.183 156.724 88.7481 156.893 88.3333C157.068 87.9737 157.325 87.6605 157.643 87.4192C158.102 87.0794 158.659 86.899 159.23 86.9057C159.384 86.908 159.537 86.927 159.687 86.9622C159.739 86.9745 159.789 86.9935 159.836 87.0187C159.836 87.0187 159.615 86.9879 159.235 87.0187C158.695 87.0519 158.179 87.255 157.761 87.599C157.476 87.8291 157.25 88.1228 157.099 88.4566C156.946 88.8584 156.842 89.2775 156.791 89.7044C156.737 90.2104 156.545 90.6917 156.236 91.0961C155.842 91.4633 155.377 91.7464 154.87 91.928C154.408 92.0968 154.025 92.4319 153.797 92.8678C153.699 93.3143 153.754 93.7805 153.951 94.1927C154.11 94.5945 154.152 95.0335 154.071 95.4583C153.99 95.883 153.79 96.2759 153.494 96.5909C153.284 96.7927 153.026 96.9366 152.744 97.0086C152.463 97.0807 152.167 97.0783 151.886 97.0017C151.737 96.9567 151.597 96.8873 151.471 96.7963C151.399 96.6987 151.352 96.6525 151.358 96.6474Z" fill="#ED8024"/>
<path d="M165.839 99.2561C165.814 99.1321 165.759 99.016 165.68 98.9177C165.6 98.8193 165.498 98.7416 165.382 98.6912C165.302 98.6536 165.214 98.6342 165.125 98.6342C165.037 98.6342 164.949 98.6536 164.869 98.6912C164.791 98.7318 164.728 98.7946 164.687 98.8715C164.646 98.9484 164.628 99.0358 164.637 99.1226C164.661 99.2182 164.713 99.3049 164.784 99.3722C164.856 99.4396 164.946 99.4849 165.043 99.5026C165.239 99.5298 165.438 99.5158 165.629 99.4615C165.682 99.4536 165.732 99.4343 165.777 99.405C165.801 99.3906 165.819 99.3699 165.831 99.3454C165.843 99.3208 165.847 99.2935 165.844 99.2664" fill="#EB996E"/>
<path d="M164.864 98.2085C164.935 98.2085 164.941 98.6553 165.295 98.9891C165.649 99.3229 166.096 99.3023 166.101 99.3742C166.106 99.4461 165.998 99.4667 165.803 99.4667C165.545 99.4631 165.297 99.3622 165.11 99.1842C164.923 99.0055 164.808 98.7643 164.786 98.5064C164.776 98.3113 164.828 98.2034 164.864 98.2085Z" fill="#263238"/>
<path d="M151.265 136.353C151.265 136.353 181.142 130.093 184.033 131.465C186.925 132.836 200.025 167.879 200.025 167.879L190.627 173.528L177.969 142.413C177.969 142.413 157.053 150.049 153.396 149.294C149.74 148.539 151.265 136.353 151.265 136.353Z" fill="#263238"/>
<path d="M164.617 138.094C165.074 138.248 182.354 145.35 183.572 147.636C184.789 149.921 181.697 189.38 181.697 189.38L170.872 188.477L172.592 154.152L153.407 149.294L164.617 138.094Z" fill="#263238"/>
<path d="M153.299 149.392C153.385 149.396 153.472 149.387 153.556 149.366L154.295 149.243L157.007 148.729C159.292 148.293 162.45 147.702 165.901 146.819C167.621 146.383 169.249 145.91 170.713 145.433C172.176 144.955 173.481 144.472 174.554 144.02C175.627 143.569 176.49 143.189 177.07 142.891L177.743 142.552C177.822 142.515 177.897 142.472 177.969 142.423C177.882 142.438 177.799 142.468 177.722 142.511L177.034 142.808C176.444 143.081 175.576 143.445 174.492 143.871C173.409 144.298 172.109 144.76 170.651 145.232C169.193 145.705 167.57 146.157 165.839 146.593C162.404 147.456 159.251 148.088 156.976 148.565L154.28 149.135L153.55 149.305C153.464 149.325 153.379 149.354 153.299 149.392Z" fill="#455A64"/>
<path d="M183.571 156.361C183.62 156.176 183.651 155.986 183.664 155.796C183.705 155.38 183.761 154.861 183.828 154.255C183.895 153.649 183.962 152.802 184.044 151.944C184.175 150.995 184.175 150.033 184.044 149.084C183.847 148.125 183.342 147.258 182.606 146.614C182.032 146.088 181.378 145.657 180.67 145.335C180.194 145.118 179.707 144.926 179.211 144.76C179.033 144.686 178.847 144.633 178.657 144.601C178.657 144.642 179.417 144.914 180.598 145.484C181.288 145.813 181.926 146.24 182.493 146.752C183.183 147.376 183.656 148.203 183.843 149.115C183.964 150.044 183.964 150.984 183.843 151.913C183.782 152.771 183.725 153.552 183.679 154.224C183.633 154.897 183.612 155.369 183.587 155.765C183.56 155.962 183.555 156.162 183.571 156.361Z" fill="#455A64"/>
<path d="M174.949 153.104C174.524 153.164 174.113 153.302 173.737 153.51C173.332 153.648 172.955 153.857 172.623 154.126C173.046 154.066 173.455 153.929 173.83 153.721C174.236 153.582 174.615 153.373 174.949 153.104Z" fill="#455A64"/>
<path d="M174.081 152.067C173.799 152.422 173.537 152.793 173.296 153.176C172.991 153.512 172.706 153.865 172.443 154.234C172.863 154.027 173.218 153.709 173.47 153.315C173.788 152.966 174 152.533 174.081 152.067Z" fill="#455A64"/>
<path d="M121.131 191.501L120.839 187.393L128.542 186.792L129.029 192.806L128.557 192.872C126.441 193.16 117.773 194.161 116.32 193.843C114.702 193.494 121.131 191.501 121.131 191.501Z" fill="#FF725E"/>
<g opacity="0.3">
<path opacity="0.3" d="M126.236 192.976C126.297 192.316 126.601 191.703 127.088 191.255C127.564 190.808 128.192 190.558 128.845 190.557L129.014 192.709L126.236 192.976Z" fill="white"/>
</g>
<g opacity="0.3">
<path opacity="0.3" d="M118.019 192.595C118.019 192.595 115.775 193.438 116.089 193.792C116.402 194.146 125.199 193.458 129.05 192.816L129.024 192.647L118.754 193.535C118.754 193.535 118.446 192.58 118.019 192.595Z" fill="white"/>
</g>
<path d="M129.127 192.631L128.993 192.657L128.619 192.708L127.222 192.878C126.041 193.016 124.413 193.181 122.6 193.319C120.787 193.458 119.159 193.556 117.978 193.607L116.571 193.658H116.191C116.147 193.664 116.102 193.664 116.058 193.658H116.191L116.571 193.633L117.973 193.556C119.159 193.484 120.792 193.381 122.595 193.237C124.397 193.093 126.03 192.939 127.217 192.821L128.613 192.683L128.993 192.647L129.127 192.631Z" fill="#263238"/>
<path d="M118.769 193.653C118.686 193.427 118.579 193.21 118.451 193.006C118.3 192.816 118.128 192.643 117.937 192.493C118.175 192.579 118.382 192.733 118.531 192.937C118.68 193.141 118.765 193.385 118.774 193.638L118.769 193.653Z" fill="#263238"/>
<path d="M120.946 192.323C120.946 192.323 120.808 192.215 120.685 192.046C120.561 191.876 120.469 191.733 120.495 191.717C120.52 191.702 120.633 191.825 120.756 191.989C120.88 192.154 120.972 192.308 120.946 192.323Z" fill="#263238"/>
<path d="M121.547 191.948C121.547 191.948 121.403 191.897 121.26 191.784C121.116 191.671 121.018 191.573 121.034 191.553C121.049 191.532 121.178 191.604 121.316 191.712C121.455 191.82 121.563 191.928 121.547 191.948Z" fill="#263238"/>
<path d="M121.886 191.188C121.76 191.244 121.624 191.272 121.486 191.27C121.352 191.301 121.214 191.301 121.08 191.27C121.206 191.214 121.343 191.186 121.481 191.188C121.614 191.158 121.753 191.158 121.886 191.188Z" fill="#263238"/>
<path d="M121.979 190.664C121.854 190.763 121.701 190.82 121.542 190.829C121.388 190.869 121.224 190.86 121.075 190.803C121.224 190.768 121.375 190.746 121.527 190.736C121.675 190.698 121.826 190.674 121.979 190.664Z" fill="#263238"/>
<path d="M120.633 191.671C120.466 191.716 120.292 191.729 120.12 191.707C119.947 191.699 119.775 191.675 119.606 191.635C119.498 191.614 119.393 191.58 119.293 191.532C119.231 191.503 119.184 191.452 119.159 191.388C119.149 191.352 119.148 191.314 119.158 191.278C119.168 191.241 119.188 191.209 119.216 191.183C119.398 191.076 119.612 191.035 119.821 191.068C120.029 191.101 120.22 191.205 120.361 191.363C120.445 191.454 120.509 191.563 120.546 191.681C120.567 191.722 120.576 191.769 120.572 191.815C120.51 191.665 120.424 191.528 120.315 191.409C120.192 191.288 120.037 191.204 119.868 191.168C119.77 191.141 119.667 191.135 119.566 191.15C119.465 191.165 119.369 191.201 119.283 191.255C119.206 191.317 119.247 191.409 119.339 191.455C119.431 191.497 119.527 191.529 119.627 191.548C119.795 191.594 119.967 191.626 120.14 191.645C120.443 191.671 120.633 191.656 120.633 191.671Z" fill="#263238"/>
<path d="M120.51 191.707C120.442 191.608 120.411 191.488 120.423 191.368C120.43 191.238 120.467 191.112 120.531 190.998C120.567 190.921 120.623 190.855 120.692 190.804C120.761 190.754 120.841 190.722 120.926 190.711C120.976 190.718 121.022 190.745 121.053 190.785C121.085 190.825 121.1 190.876 121.095 190.926C121.089 191.007 121.066 191.086 121.029 191.157C120.971 191.271 120.901 191.378 120.818 191.476C120.674 191.64 120.556 191.707 120.551 191.697C120.546 191.686 120.644 191.599 120.767 191.435C120.838 191.336 120.9 191.231 120.952 191.122C121.008 191.009 121.039 190.819 120.916 190.803C120.793 190.788 120.674 190.937 120.608 191.039C120.545 191.141 120.505 191.255 120.49 191.373C120.485 191.485 120.492 191.597 120.51 191.707Z" fill="#263238"/>
<path d="M128.803 190.536C128.803 190.536 128.583 190.536 128.239 190.603C127.789 190.688 127.373 190.898 127.037 191.209C126.705 191.526 126.465 191.927 126.344 192.369C126.251 192.708 126.261 192.929 126.241 192.929C126.233 192.878 126.233 192.826 126.241 192.775C126.242 192.631 126.259 192.488 126.292 192.349C126.396 191.887 126.636 191.466 126.98 191.142C127.33 190.822 127.765 190.611 128.233 190.536C128.375 190.52 128.518 190.52 128.66 190.536C128.707 190.528 128.756 190.528 128.803 190.536Z" fill="#263238"/>
<path d="M127.776 187.393C127.869 187.915 127.932 188.441 127.966 188.97C128.028 189.497 128.061 190.026 128.064 190.557C127.969 190.036 127.905 189.509 127.874 188.98C127.809 188.454 127.776 187.924 127.776 187.393Z" fill="#263238"/>
<path d="M125.209 192.297C124.848 192.415 124.473 192.483 124.094 192.498C123.717 192.544 123.336 192.544 122.959 192.498C122.959 192.467 123.473 192.462 124.089 192.405C124.705 192.349 125.209 192.272 125.209 192.297Z" fill="#263238"/>
<path d="M126.714 192.18C126.714 192.18 126.683 192.287 126.642 192.406C126.601 192.524 126.58 192.631 126.549 192.631C126.518 192.631 126.503 192.513 126.549 192.375C126.595 192.236 126.698 192.159 126.714 192.18Z" fill="#263238"/>
<path d="M127.227 191.425C127.227 191.425 127.227 191.527 127.129 191.615C127.032 191.702 126.98 191.758 126.965 191.743C126.95 191.728 126.965 191.64 127.063 191.553C127.16 191.466 127.212 191.409 127.227 191.425Z" fill="#263238"/>
<path d="M128.018 191.039C128.018 191.039 127.91 191.07 127.802 191.121C127.694 191.173 127.617 191.234 127.592 191.219C127.566 191.204 127.628 191.091 127.766 191.034C127.905 190.978 128.023 191.014 128.018 191.039Z" fill="#263238"/>
<path d="M128.583 190.839C128.583 190.865 128.583 190.906 128.496 190.937C128.408 190.968 128.372 190.973 128.362 190.937C128.352 190.901 128.393 190.87 128.455 190.844C128.516 190.819 128.573 190.819 128.583 190.839Z" fill="#263238"/>
<path d="M104.021 191.502L104.123 187.393L111.852 187.537L111.759 193.556L111.282 193.581C109.146 193.658 100.426 193.828 99.0085 193.366C97.4319 192.873 104.021 191.502 104.021 191.502Z" fill="#FF725E"/>
<g opacity="0.3">
<path opacity="0.3" d="M108.961 193.458C109.092 192.808 109.457 192.228 109.988 191.83C110.509 191.44 111.157 191.257 111.806 191.317L111.765 193.479L108.961 193.458Z" fill="white"/>
</g>
<g opacity="0.3">
<path opacity="0.3" d="M100.801 192.292C100.801 192.292 98.4847 192.914 98.7466 193.319C99.0085 193.725 107.846 193.864 111.739 193.592V193.422L101.468 193.319C101.468 193.319 101.247 192.318 100.801 192.292Z" fill="white"/>
</g>
<path d="M111.857 193.396C111.813 193.404 111.768 193.404 111.723 193.396H111.343L109.936 193.427C108.75 193.427 107.112 193.458 105.315 193.427C103.517 193.396 101.869 193.33 100.693 193.268L99.2909 193.186L98.9109 193.155H98.7773H98.9109H99.2909L100.698 193.212C101.879 193.258 103.517 193.309 105.32 193.345C107.122 193.381 108.766 193.376 109.942 193.376H111.857V193.396Z" fill="#263238"/>
<path d="M101.463 193.422C101.407 193.187 101.322 192.959 101.212 192.744C101.079 192.544 100.922 192.361 100.744 192.2C100.986 192.295 101.182 192.479 101.294 192.713C101.435 192.921 101.495 193.173 101.463 193.422Z" fill="#263238"/>
<path d="M103.764 192.308C103.764 192.308 103.635 192.184 103.528 192.005C103.42 191.825 103.348 191.671 103.368 191.656C103.389 191.64 103.497 191.774 103.605 191.953C103.684 192.058 103.738 192.179 103.764 192.308Z" fill="#263238"/>
<path d="M104.395 191.984C104.395 191.984 104.257 191.923 104.128 191.799C104 191.676 103.902 191.563 103.923 191.543C103.944 191.522 104.062 191.609 104.19 191.733C104.318 191.856 104.411 191.969 104.395 191.984Z" fill="#263238"/>
<path d="M104.806 191.265C104.676 191.309 104.537 191.323 104.401 191.306C104.264 191.321 104.125 191.306 103.995 191.26C104.125 191.215 104.264 191.199 104.401 191.214C104.538 191.199 104.677 191.217 104.806 191.265Z" fill="#263238"/>
<path d="M104.95 190.752C104.816 190.838 104.658 190.881 104.498 190.875C104.34 190.901 104.178 190.876 104.036 190.803C104.188 190.79 104.341 190.79 104.493 190.803C104.643 190.771 104.796 190.754 104.95 190.752Z" fill="#263238"/>
<path d="M103.512 191.625C103.342 191.656 103.168 191.656 102.999 191.625C102.824 191.598 102.652 191.555 102.485 191.496C102.381 191.465 102.281 191.422 102.187 191.368C102.128 191.334 102.084 191.279 102.064 191.214C102.058 191.176 102.063 191.138 102.077 191.102C102.092 191.067 102.116 191.036 102.146 191.014C102.337 190.925 102.553 190.906 102.757 190.958C102.961 191.01 103.141 191.132 103.266 191.301C103.34 191.4 103.393 191.514 103.42 191.635C103.42 191.722 103.42 191.769 103.42 191.769C103.375 191.614 103.302 191.47 103.204 191.342C103.094 191.209 102.948 191.111 102.783 191.06C102.687 191.025 102.586 191.01 102.485 191.016C102.383 191.021 102.284 191.046 102.192 191.091C102.11 191.147 102.141 191.24 102.228 191.291C102.316 191.344 102.409 191.387 102.506 191.419C102.673 191.48 102.844 191.527 103.019 191.558C103.327 191.609 103.512 191.609 103.512 191.625Z" fill="#263238"/>
<path d="M103.384 191.651C103.326 191.544 103.308 191.42 103.332 191.301C103.351 191.172 103.4 191.049 103.476 190.942C103.52 190.87 103.581 190.81 103.653 190.767C103.726 190.724 103.808 190.699 103.892 190.695C103.943 190.708 103.987 190.739 104.015 190.783C104.042 190.827 104.052 190.881 104.041 190.932C104.028 191.01 103.998 191.086 103.954 191.152C103.887 191.26 103.805 191.359 103.712 191.445C103.635 191.534 103.536 191.601 103.425 191.64C103.425 191.64 103.528 191.553 103.666 191.399C103.748 191.309 103.82 191.211 103.882 191.106C103.949 191.003 104 190.813 103.882 190.788C103.764 190.762 103.63 190.896 103.553 190.993C103.48 191.088 103.429 191.199 103.404 191.317C103.387 191.427 103.38 191.539 103.384 191.651Z" fill="#263238"/>
<path d="M111.754 191.281C111.754 191.281 111.533 191.255 111.184 191.281C110.727 191.332 110.293 191.51 109.931 191.794C109.57 192.077 109.293 192.454 109.13 192.883C109.07 193.063 109.018 193.247 108.976 193.433C108.966 193.38 108.966 193.326 108.976 193.273C108.993 193.132 109.024 192.992 109.068 192.857C109.215 192.406 109.496 192.01 109.873 191.721C110.249 191.432 110.705 191.264 111.179 191.24C111.321 191.225 111.464 191.225 111.605 191.24C111.657 191.245 111.707 191.259 111.754 191.281Z" fill="#263238"/>
<path d="M111.015 188.05C111.057 188.578 111.069 189.108 111.051 189.637C111.063 190.169 111.044 190.7 110.994 191.229C110.952 190.7 110.94 190.168 110.958 189.637C110.943 189.108 110.962 188.578 111.015 188.05Z" fill="#263238"/>
<path d="M108.005 192.688C107.635 192.767 107.255 192.799 106.876 192.78C106.496 192.793 106.116 192.755 105.746 192.667C105.746 192.667 106.259 192.667 106.876 192.667C107.492 192.667 108 192.662 108.005 192.688Z" fill="#263238"/>
<path d="M109.515 192.713C109.515 192.713 109.474 192.821 109.423 192.934C109.372 193.047 109.336 193.15 109.31 193.15C109.284 193.15 109.274 193.027 109.336 192.893C109.397 192.76 109.5 192.693 109.515 192.713Z" fill="#263238"/>
<path d="M110.101 192.015C110.101 192.015 110.07 192.113 109.988 192.19C109.905 192.267 109.823 192.323 109.808 192.303C109.792 192.282 109.839 192.205 109.921 192.123C110.003 192.041 110.085 192.015 110.101 192.015Z" fill="#263238"/>
<path d="M110.922 191.707C110.922 191.733 110.815 191.707 110.702 191.764C110.589 191.82 110.501 191.861 110.486 191.846C110.471 191.83 110.532 191.722 110.671 191.676C110.809 191.63 110.933 191.681 110.922 191.707Z" fill="#263238"/>
<path d="M111.508 191.563C111.508 191.589 111.472 191.625 111.405 191.651C111.338 191.676 111.282 191.651 111.271 191.651C111.261 191.651 111.308 191.589 111.374 191.568C111.441 191.548 111.498 191.537 111.508 191.563Z" fill="#263238"/>
<path d="M110.424 139.897C117.225 139.217 124.072 139.131 130.888 139.64L122.24 152.052L114.435 152.083L112.802 190.243H102.449L103.435 147.682C103.48 145.764 104.209 143.925 105.491 142.498C106.772 141.07 108.522 140.148 110.424 139.897Z" fill="#263238"/>
<path d="M113.146 187.301C111.361 187.436 109.569 187.481 107.78 187.434C105.991 187.481 104.202 187.436 102.418 187.301C102.418 187.229 104.817 187.167 107.78 187.167C110.743 187.167 113.146 187.229 113.146 187.301Z" fill="#455A64"/>
<path d="M117.244 144.39C117.072 144.391 116.901 144.381 116.73 144.359C116.397 144.334 115.909 144.293 115.282 144.272C114.52 144.239 113.757 144.253 112.997 144.313C112.525 144.348 112.058 144.426 111.6 144.544C111.088 144.642 110.62 144.897 110.26 145.274C110.095 145.496 109.976 145.749 109.911 146.018C109.818 146.295 109.746 146.583 109.674 146.881C109.531 147.498 109.431 148.124 109.377 148.755C109.258 150.075 109.151 151.487 109.048 152.971C108.843 155.94 108.694 159.211 108.57 162.646C108.339 169.517 108.057 175.741 107.887 180.24C107.785 182.474 107.702 184.292 107.646 185.57C107.61 186.181 107.584 186.669 107.564 187.018C107.564 187.172 107.564 187.296 107.564 187.398C107.569 187.441 107.569 187.484 107.564 187.527C107.559 187.482 107.559 187.438 107.564 187.393C107.564 187.296 107.564 187.172 107.564 187.018C107.564 186.664 107.564 186.181 107.589 185.565C107.631 184.286 107.682 182.484 107.749 180.235C107.903 175.71 108.118 169.497 108.355 162.636C108.478 159.2 108.632 155.924 108.868 152.951C108.976 151.467 109.094 150.055 109.223 148.735C109.284 148.095 109.39 147.46 109.541 146.835C109.613 146.533 109.695 146.241 109.787 145.957C109.866 145.665 110.001 145.391 110.183 145.15C110.571 144.751 111.073 144.481 111.621 144.38C112.091 144.267 112.571 144.195 113.053 144.164C113.819 144.112 114.588 144.112 115.354 144.164C115.986 144.2 116.474 144.257 116.802 144.298L117.177 144.354L117.244 144.39Z" fill="#455A64"/>
<path d="M129.425 153.033L130.175 189.679L118.199 190.264C118.199 190.264 116.294 154.363 117.244 144.175C117.896 137.201 144.502 140.2 144.502 140.2C144.887 154.065 129.425 153.038 129.425 153.038" fill="#263238"/>
<path d="M130.174 186.787C129.612 186.891 129.042 186.951 128.47 186.967C127.412 187.044 125.948 187.131 124.361 187.213C122.775 187.296 121.28 187.352 120.222 187.383C119.651 187.427 119.078 187.427 118.507 187.383C119.069 187.275 119.64 187.213 120.212 187.198C121.27 187.121 122.728 187.034 124.346 186.951C125.964 186.869 127.427 186.813 128.454 186.782C129.027 186.734 129.602 186.736 130.174 186.787Z" fill="#455A64"/>
<path d="M141.919 139.933C141.93 139.985 141.93 140.04 141.919 140.092C141.919 140.2 141.919 140.354 141.868 140.559C141.759 141.152 141.547 141.72 141.241 142.239C140.844 142.91 140.3 143.482 139.649 143.912C138.999 144.343 138.26 144.62 137.487 144.724C136.819 144.78 136.149 144.795 135.479 144.77H128.423C127.992 144.77 127.54 144.77 127.104 144.77C126.424 144.791 125.766 145.016 125.216 145.416C124.667 145.817 124.251 146.374 124.022 147.014C123.866 147.459 123.795 147.93 123.812 148.401V149.906C123.812 151.903 123.812 153.973 123.812 156.068C123.812 164.536 123.781 172.198 123.771 177.77C123.771 180.532 123.74 182.771 123.73 184.343C123.73 185.108 123.73 185.704 123.73 186.13C123.73 186.325 123.73 186.479 123.73 186.597C123.736 186.65 123.736 186.704 123.73 186.756C123.723 186.704 123.723 186.65 123.73 186.597C123.73 186.479 123.73 186.325 123.73 186.13C123.73 185.704 123.73 185.103 123.704 184.343C123.704 182.771 123.678 180.532 123.663 177.77C123.663 172.198 123.663 164.536 123.622 156.068V149.906C123.622 149.392 123.622 148.909 123.622 148.421C123.604 147.92 123.681 147.42 123.848 146.948C124.016 146.489 124.273 146.069 124.606 145.712C124.938 145.355 125.339 145.068 125.784 144.868C126.212 144.674 126.675 144.566 127.145 144.549C127.597 144.549 128.033 144.549 128.47 144.549H131.001L135.541 144.575C136.197 144.598 136.853 144.585 137.508 144.534C138.245 144.435 138.952 144.175 139.578 143.772C140.204 143.369 140.733 142.833 141.128 142.203C141.438 141.699 141.662 141.147 141.791 140.57C141.832 140.369 141.847 140.215 141.868 140.113C141.881 140.052 141.898 139.992 141.919 139.933Z" fill="#455A64"/>
<path d="M129.579 149.957C129.676 150.546 129.687 151.147 129.61 151.739C129.619 152.336 129.541 152.931 129.378 153.505C129.275 152.917 129.263 152.316 129.343 151.723C129.334 151.126 129.414 150.531 129.579 149.957Z" fill="#455A64"/>
<path d="M130.041 139.635C129.755 139.688 129.464 139.721 129.173 139.733L126.796 139.907C125.769 139.984 124.603 140.092 123.293 140.298C121.879 140.501 120.523 140.994 119.308 141.746C118.69 142.124 118.212 142.694 117.948 143.369C117.74 144.022 117.599 144.695 117.526 145.376C117.372 146.691 117.357 147.888 117.331 148.894C117.306 149.901 117.285 150.712 117.254 151.277C117.254 151.559 117.218 151.79 117.203 151.924C117.203 152.001 117.189 152.078 117.162 152.15C117.142 151.858 117.142 151.564 117.162 151.272C117.162 150.666 117.162 149.865 117.162 148.889C117.147 147.708 117.194 146.527 117.3 145.351C117.369 144.653 117.51 143.965 117.722 143.297C118.004 142.568 118.516 141.952 119.18 141.54C120.428 140.762 121.829 140.261 123.288 140.072C124.608 139.877 125.81 139.789 126.816 139.733C127.823 139.676 128.634 139.656 129.199 139.64C129.479 139.616 129.761 139.614 130.041 139.635Z" fill="#455A64"/>
<path d="M112.37 118.514C112.37 118.514 114.687 134.233 122.169 133.724L121.717 125.2L115.128 119.145L112.37 118.514Z" fill="#EB996E"/>
<path d="M144.579 140.066L142.941 127.146L144.631 113.928C143.521 107.765 134.873 107.319 134.873 107.319L128.069 107.206C128.069 107.206 122.354 106.374 120.269 110.22L116.422 123.998C116.422 123.998 119.072 124.378 121.558 124.465L121.727 125.97H121.768L122.487 139.558L144.579 140.066Z" fill="#EB3D38"/>
<path d="M134.92 107.134C134.932 107.269 134.916 107.405 134.873 107.534C134.776 107.991 134.586 108.422 134.313 108.801C134.041 109.181 133.693 109.499 133.292 109.737C132.706 110.1 132.029 110.29 131.34 110.287C130.715 110.298 130.098 110.148 129.548 109.85C128.998 109.552 128.535 109.117 128.203 108.587C128.019 108.269 127.894 107.922 127.833 107.56C127.795 107.428 127.786 107.29 127.807 107.154C127.945 107.625 128.133 108.079 128.367 108.51C128.697 108.992 129.141 109.386 129.66 109.654C130.179 109.923 130.756 110.059 131.34 110.051C131.923 110.054 132.497 109.915 133.015 109.647C133.532 109.378 133.976 108.988 134.309 108.51C134.553 108.07 134.757 107.61 134.92 107.134Z" fill="#263238"/>
<path d="M122.128 113.163C122.26 114.255 122.304 115.355 122.261 116.454C122.304 117.553 122.26 118.654 122.128 119.746C121.992 118.654 121.948 117.553 121.994 116.454C121.948 115.355 121.992 114.254 122.128 113.163Z" fill="#263238"/>
<path d="M109.243 106.672C109.449 106.913 116.89 116.865 116.89 116.865L115.863 117.456L108.226 107.637L109.243 106.672Z" fill="#263238"/>
<path d="M139.131 114.539C139.131 114.539 131.304 125.806 130.858 126.026C129.928 126.463 119.221 117.209 118.199 116.326C118.061 116.136 117.768 115.74 117.172 114.95C117.172 114.95 116.33 111.083 115.426 111.38C114.522 111.678 115.94 113.347 115.334 114.816C114.728 116.285 112.057 112.762 111.95 112.464L111.256 111.56C111.256 111.56 110.527 113.614 110.578 114.482C110.738 117.24 113.346 120.521 113.346 120.521C113.346 120.521 125.065 135.039 133.092 135.491C136.784 135.696 145.052 118.857 145.052 118.857L139.131 114.539Z" fill="#FFBE9D"/>
<path d="M111.893 114.985C111.63 114.707 111.421 114.381 111.277 114.025C111.082 113.693 110.949 113.327 110.886 112.947C111.088 113.273 111.26 113.617 111.4 113.974C111.596 114.295 111.761 114.633 111.893 114.985Z" fill="#EB996E"/>
<path d="M140.943 109.039C140.943 109.039 148.728 112.326 142.777 126.078L133.358 120.527L140.943 109.039Z" fill="#EB3D38"/>
<path d="M141.128 109.285C141.043 109.313 140.955 109.328 140.866 109.331C140.62 109.345 140.377 109.39 140.142 109.465C139.271 109.738 138.494 110.253 137.903 110.949C136.321 112.659 135.002 115.638 133.656 118.919C133.456 119.407 133.251 119.895 133.061 120.352L133.004 120.187C135.808 121.728 138.242 123.181 139.952 124.296C140.81 124.85 141.493 125.323 141.945 125.636L142.458 126.016C142.521 126.057 142.578 126.108 142.628 126.165C142.368 126.033 142.118 125.884 141.878 125.718L139.849 124.45C138.119 123.382 135.669 121.954 132.865 120.429L132.763 120.372L132.809 120.259L133.399 118.827C134.745 115.545 136.101 112.546 137.759 110.831C138.378 110.124 139.193 109.618 140.101 109.378C140.347 109.309 140.601 109.278 140.856 109.285C140.946 109.273 141.038 109.273 141.128 109.285Z" fill="#263238"/>
<path d="M131.371 110.081C130.896 110.081 130.425 109.987 129.986 109.804C129.547 109.621 129.149 109.352 128.815 109.014C128.48 108.676 128.216 108.275 128.038 107.834C127.86 107.393 127.771 106.921 127.776 106.446C127.776 105.193 127.807 104.114 127.807 104.114C127.807 104.114 124.916 103.842 124.726 100.982C124.536 98.1213 124.603 91.5173 124.603 91.5173C126.188 90.7166 127.958 90.354 129.73 90.4668C131.503 90.5797 133.213 91.164 134.683 92.1592L135.125 92.4571L134.966 106.523C134.956 107.47 134.573 108.375 133.9 109.041C133.227 109.708 132.318 110.081 131.371 110.081Z" fill="#FFBE9D"/>
<path d="M127.71 99.2203C127.499 99.2775 127.28 99.2983 127.063 99.282C127.003 99.2891 126.943 99.2891 126.883 99.282C126.842 99.2722 126.805 99.2532 126.773 99.2265C126.74 99.1997 126.715 99.166 126.698 99.1279C126.658 98.9849 126.669 98.8323 126.729 98.6965C126.806 98.4295 126.888 98.183 126.97 97.8697C127.156 97.1537 127.411 96.4572 127.73 95.7899C127.619 96.5214 127.437 97.2403 127.186 97.9365C127.093 98.2189 127.006 98.4911 126.924 98.7581C126.876 98.8495 126.856 98.9533 126.867 99.056C126.867 99.1125 126.96 99.133 127.063 99.1382C127.281 99.127 127.501 99.1548 127.71 99.2203Z" fill="#263238"/>
<path d="M129.019 99.5797C129.415 99.3127 127.925 100.252 127.119 100.263C127.266 100.462 127.476 100.605 127.714 100.669C127.953 100.734 128.207 100.715 128.434 100.617C129.271 100.247 129.019 99.5797 129.019 99.5797Z" fill="white"/>
<path d="M127.776 104.073C129.1 104.015 130.376 103.565 131.443 102.779C131.443 102.779 130.688 104.895 127.812 104.833L127.776 104.073Z" fill="#EB996E"/>
<path d="M134.339 95.6204C134.396 95.6204 136.152 95.3739 135.988 97.4486C135.824 99.5233 133.78 98.6708 133.78 98.6092C133.78 98.5476 134.339 95.6204 134.339 95.6204Z" fill="#FFBE9D"/>
<path d="M134.452 97.9313C134.452 97.9313 134.488 97.9621 134.545 97.9929C134.586 98.0158 134.631 98.0304 134.678 98.0357C134.724 98.041 134.772 98.0369 134.817 98.0237C134.957 97.9483 135.075 97.8375 135.158 97.7023C135.242 97.5672 135.289 97.4124 135.294 97.2534C135.312 97.0798 135.291 96.9045 135.233 96.7399C135.218 96.6743 135.188 96.6132 135.145 96.5614C135.102 96.5097 135.048 96.4688 134.986 96.4421C134.945 96.4276 134.9 96.4279 134.859 96.4429C134.817 96.4578 134.783 96.4866 134.76 96.5242C134.729 96.5807 134.76 96.6218 134.729 96.6269C134.699 96.6321 134.688 96.5858 134.729 96.5037C134.747 96.4539 134.779 96.4108 134.822 96.3804C134.883 96.3428 134.956 96.3282 135.027 96.3394C135.112 96.3632 135.189 96.4083 135.251 96.4704C135.313 96.5324 135.358 96.6093 135.382 96.6937C135.453 96.8819 135.479 97.0841 135.459 97.2842C135.454 97.4698 135.394 97.6498 135.287 97.8015C135.18 97.9532 135.031 98.0698 134.858 98.1367C134.801 98.1489 134.743 98.1479 134.686 98.1336C134.63 98.1193 134.578 98.0923 134.534 98.0545C134.452 97.9826 134.452 97.9364 134.452 97.9313Z" fill="#EB996E"/>
<path d="M124.783 91.6869C124.432 91.5827 124.127 91.3654 123.913 91.0691C123.699 90.7727 123.59 90.4139 123.601 90.0487C123.631 89.6851 123.757 89.336 123.967 89.0373C124.176 88.7385 124.461 88.501 124.793 88.3489C125.129 88.2073 125.492 88.1374 125.857 88.1435C126.222 88.1497 126.582 88.2319 126.914 88.3849C127.016 87.8512 127.306 87.3714 127.73 87.0313C128.153 86.6912 128.685 86.513 129.228 86.5284C129.771 86.5438 130.291 86.7519 130.695 87.1156C131.099 87.4792 131.361 87.9746 131.433 88.5133C131.505 87.9587 132.126 87.6505 132.686 87.6146C132.963 87.5873 133.243 87.6231 133.504 87.7191C133.766 87.8151 134.002 87.969 134.196 88.1692C134.382 88.3766 134.485 88.6454 134.485 88.9241C134.485 89.2028 134.382 89.4716 134.196 89.679C134.82 89.5939 135.454 89.746 135.972 90.1052C136.227 90.285 136.434 90.5259 136.572 90.8057C136.71 91.0856 136.776 91.3956 136.763 91.7074C136.741 92.02 136.621 92.3176 136.42 92.5581C136.219 92.7987 135.947 92.9699 135.644 93.0478C135.433 93.0888 135.182 93.0991 135.069 93.284C135.016 93.3907 134.997 93.5103 135.012 93.628L135.074 95.6822C134.882 95.6138 134.671 95.6214 134.485 95.7036C134.299 95.7857 134.151 95.9361 134.072 96.1238C133.932 96.5079 133.893 96.9219 133.959 97.3255C133.785 97.5874 133.338 97.5103 133.148 97.2587C132.983 96.9841 132.909 96.6639 132.937 96.3446C132.937 95.2405 132.937 94.1364 132.896 93.0323C132.733 93.1238 132.549 93.1719 132.362 93.1721C132.175 93.1723 131.991 93.1245 131.828 93.0333C131.665 92.9422 131.528 92.8106 131.43 92.6513C131.332 92.492 131.276 92.3103 131.268 92.1234C131.034 92.3488 130.753 92.5192 130.445 92.6222C130.136 92.7253 129.809 92.7583 129.486 92.719C129.164 92.6796 128.854 92.5689 128.58 92.3948C128.305 92.2207 128.073 91.9876 127.9 91.7126C127.568 91.9981 127.202 92.2413 126.811 92.4366C126.416 92.6328 125.96 92.6713 125.537 92.5445C125.329 92.4778 125.146 92.3491 125.013 92.1757C124.88 92.0022 124.803 91.7923 124.793 91.5739L124.942 91.4507" fill="#263238"/>
<path d="M125.532 95.8619C125.531 95.9105 125.539 95.9588 125.556 96.0042C125.574 96.0496 125.6 96.0911 125.633 96.1264C125.667 96.1617 125.707 96.1901 125.751 96.2099C125.795 96.2297 125.843 96.2406 125.892 96.2419C125.991 96.2419 126.087 96.2024 126.157 96.1321C126.227 96.0618 126.267 95.9665 126.267 95.8671C126.267 95.7676 126.227 95.6723 126.157 95.602C126.087 95.5317 125.991 95.4922 125.892 95.4922C125.796 95.4961 125.705 95.5366 125.638 95.6054C125.571 95.6742 125.533 95.766 125.532 95.8619Z" fill="#263238"/>
<path d="M124.931 95.4715C124.978 95.5229 125.25 95.2918 125.645 95.2764C126.041 95.261 126.333 95.4613 126.374 95.4099C126.416 95.3586 126.349 95.2918 126.22 95.1994C126.049 95.0805 125.843 95.021 125.635 95.0299C125.428 95.0413 125.23 95.1187 125.07 95.2507C124.947 95.3329 124.911 95.4253 124.931 95.4715Z" fill="#263238"/>
<path d="M129.831 95.8619C129.829 95.9596 129.866 96.054 129.933 96.125C130 96.196 130.092 96.2379 130.19 96.2419C130.239 96.2426 130.288 96.2335 130.333 96.2153C130.379 96.197 130.42 96.1699 130.455 96.1355C130.49 96.1011 130.517 96.0601 130.536 96.0149C130.555 95.9697 130.565 95.9212 130.565 95.8722C130.566 95.7745 130.53 95.6801 130.462 95.6091C130.395 95.5382 130.303 95.4962 130.205 95.4922C130.107 95.4935 130.013 95.5327 129.944 95.6016C129.874 95.6705 129.833 95.7638 129.831 95.8619Z" fill="#263238"/>
<path d="M129.317 95.5227C129.363 95.5741 129.635 95.343 130.031 95.3276C130.426 95.3122 130.714 95.5125 130.76 95.456C130.806 95.3995 130.729 95.343 130.601 95.2506C130.432 95.131 130.227 95.0714 130.02 95.0811C129.811 95.0903 129.611 95.1679 129.45 95.3019C129.317 95.4046 129.271 95.5022 129.317 95.5227Z" fill="#263238"/>
</svg>
