<svg width="47" height="48" viewBox="0 0 47 48" fill="none" xmlns="http://www.w3.org/2000/svg">
<g id="Center focus strong" clip-path="url(#clip0_2320_1889)">
<path id="Vector" d="M23.25 16.25C18.9681 16.25 15.5 19.7181 15.5 24C15.5 28.2819 18.9681 31.75 23.25 31.75C27.5319 31.75 31 28.2819 31 24C31 19.7181 27.5319 16.25 23.25 16.25ZM9.6875 29.8125H5.8125V37.5625C5.8125 39.6937 7.55625 41.4375 9.6875 41.4375H17.4375V37.5625H9.6875V29.8125ZM9.6875 10.4375H17.4375V6.5625H9.6875C7.55625 6.5625 5.8125 8.30625 5.8125 10.4375V18.1875H9.6875V10.4375ZM36.8125 6.5625H29.0625V10.4375H36.8125V18.1875H40.6875V10.4375C40.6875 8.30625 38.9437 6.5625 36.8125 6.5625ZM36.8125 37.5625H29.0625V41.4375H36.8125C38.9437 41.4375 40.6875 39.6937 40.6875 37.5625V29.8125H36.8125V37.5625Z" fill="#171717"/>
</g>
<defs>
<clipPath id="clip0_2320_1889">
<rect width="46.5" height="46.5" fill="white" transform="translate(0 0.75)"/>
</clipPath>
</defs>
</svg>
