<svg width="46" height="46" viewBox="0 0 46 46" fill="none" xmlns="http://www.w3.org/2000/svg">
<g id="People" clip-path="url(#clip0_2320_1895)">
<path id="Vector" d="M30.6665 21.1146C33.7963 21.1146 36.3039 18.5882 36.3039 15.4584C36.3039 12.3286 33.7963 9.80212 30.6665 9.80212C27.5367 9.80212 25.0103 12.3286 25.0103 15.4584C25.0103 18.5882 27.5367 21.1146 30.6665 21.1146ZM15.5832 21.1146C18.713 21.1146 21.2206 18.5882 21.2206 15.4584C21.2206 12.3286 18.713 9.80212 15.5832 9.80212C12.4534 9.80212 9.92692 12.3286 9.92692 15.4584C9.92692 18.5882 12.4534 21.1146 15.5832 21.1146ZM15.5832 24.8855C11.1902 24.8855 2.38525 27.0914 2.38525 31.4844V36.198H28.7811V31.4844C28.7811 27.0914 19.9762 24.8855 15.5832 24.8855ZM30.6665 24.8855C30.1197 24.8855 29.4975 24.9232 28.8377 24.9797C31.0247 26.5635 32.5519 28.694 32.5519 31.4844V36.198H43.8644V31.4844C43.8644 27.0914 35.0595 24.8855 30.6665 24.8855Z" fill="#171717"/>
</g>
<defs>
<clipPath id="clip0_2320_1895">
<rect width="45.25" height="45.25" fill="white" transform="translate(0.5 0.375)"/>
</clipPath>
</defs>
</svg>
