<svg width="28" height="28" viewBox="0 0 28 28" fill="none" xmlns="http://www.w3.org/2000/svg">
<g clip-path="url(#clip0_2267_1234)">
<path d="M4.55047 14.0001C4.55047 12.0051 6.17213 10.3834 8.16713 10.3834H12.8338V8.16672H8.16713C4.94713 8.16672 2.3338 10.7801 2.3338 14.0001C2.3338 17.2201 4.94713 19.8334 8.16713 19.8334H12.8338V17.6167H8.16713C6.17213 17.6167 4.55047 15.9951 4.55047 14.0001ZM9.3338 15.1667H18.6671V12.8334H9.3338V15.1667ZM19.8338 8.16672H15.1671V10.3834H19.8338C21.8288 10.3834 23.4505 12.0051 23.4505 14.0001C23.4505 15.9951 21.8288 17.6167 19.8338 17.6167H15.1671V19.8334H19.8338C23.0538 19.8334 25.6671 17.2201 25.6671 14.0001C25.6671 10.7801 23.0538 8.16672 19.8338 8.16672Z" fill="#2B388A"/>
</g>
<defs>
<clipPath id="clip0_2267_1234">
<rect width="28" height="28" fill="white"/>
</clipPath>
</defs>
</svg>
