<svg width="38" height="24" viewBox="0 0 38 24" fill="none" xmlns="http://www.w3.org/2000/svg">
<path d="M26.181 10.1572C28.9785 10.1572 31.2199 7.89893 31.2199 5.10141C31.2199 2.30389 28.9785 0.0456543 26.181 0.0456543C23.3835 0.0456543 21.1253 2.30389 21.1253 5.10141C21.1253 7.89893 23.3835 10.1572 26.181 10.1572ZM12.699 10.1572C15.4965 10.1572 17.7379 7.89893 17.7379 5.10141C17.7379 2.30389 15.4965 0.0456543 12.699 0.0456543C9.90147 0.0456543 7.64323 2.30389 7.64323 5.10141C7.64323 7.89893 9.90147 10.1572 12.699 10.1572ZM12.699 13.5277C8.77235 13.5277 0.902222 15.4994 0.902222 19.4261V23.6392H24.4958V19.4261C24.4958 15.4994 16.6256 13.5277 12.699 13.5277ZM26.181 13.5277C25.6923 13.5277 25.1362 13.5614 24.5463 13.6119C26.5012 15.0275 27.8663 16.9319 27.8663 19.4261V23.6392H37.9778V19.4261C37.9778 15.4994 30.1077 13.5277 26.181 13.5277Z" fill="#2B388A"/>
</svg>
