<svg width="26" height="30" viewBox="0 0 26 30" fill="none" xmlns="http://www.w3.org/2000/svg">
<path d="M20.6797 19.5622L16.4175 15.3319L20.6798 11.1015L24.8264 13.4758C26.2665 14.3004 26.2665 16.3632 24.8264 17.1878L20.6797 19.5622Z" fill="#FEFEFE"/>
<path d="M19.7117 20.1165L15.6542 16.0894L1.82839 29.8117C2.28902 29.8847 2.78261 29.8101 3.23993 29.5483L19.7117 20.1165Z" fill="#FEFEFE"/>
<path d="M0.778399 29.3387L14.8909 15.3319L0.778355 1.32502C0.312449 1.70807 0.00219727 2.28639 0.00219727 2.97135V27.6923C0.00219727 28.3773 0.312469 28.9556 0.778399 29.3387Z" fill="#FEFEFE"/>
<path d="M1.82832 0.851987C2.28897 0.778923 2.78259 0.853485 3.23993 1.11536L19.7117 10.5471L15.6542 14.5743L1.82832 0.851987Z" fill="#FEFEFE"/>
</svg>
