<svg width="36" height="36" viewBox="0 0 36 36" fill="none" xmlns="http://www.w3.org/2000/svg">
<path d="M18.25 10.25C13.9681 10.25 10.5 13.7181 10.5 18C10.5 22.2819 13.9681 25.75 18.25 25.75C22.5319 25.75 26 22.2819 26 18C26 13.7181 22.5319 10.25 18.25 10.25ZM4.6875 23.8125H0.8125V31.5625C0.8125 33.6937 2.55625 35.4375 4.6875 35.4375H12.4375V31.5625H4.6875V23.8125ZM4.6875 4.4375H12.4375V0.5625H4.6875C2.55625 0.5625 0.8125 2.30625 0.8125 4.4375V12.1875H4.6875V4.4375ZM31.8125 0.5625H24.0625V4.4375H31.8125V12.1875H35.6875V4.4375C35.6875 2.30625 33.9437 0.5625 31.8125 0.5625ZM31.8125 31.5625H24.0625V35.4375H31.8125C33.9437 35.4375 35.6875 33.6937 35.6875 31.5625V23.8125H31.8125V31.5625Z" fill="#171717"/>
</svg>
