<svg width="42" height="28" viewBox="0 0 42 28" fill="none" xmlns="http://www.w3.org/2000/svg">
<path d="M28.6665 12.1146C31.7963 12.1146 34.3039 9.58817 34.3039 6.45837C34.3039 3.32858 31.7963 0.802124 28.6665 0.802124C25.5367 0.802124 23.0103 3.32858 23.0103 6.45837C23.0103 9.58817 25.5367 12.1146 28.6665 12.1146ZM13.5832 12.1146C16.713 12.1146 19.2206 9.58817 19.2206 6.45837C19.2206 3.32858 16.713 0.802124 13.5832 0.802124C10.4534 0.802124 7.92692 3.32858 7.92692 6.45837C7.92692 9.58817 10.4534 12.1146 13.5832 12.1146ZM13.5832 15.8855C9.19015 15.8855 0.385254 18.0914 0.385254 22.4844V27.198H26.7811V22.4844C26.7811 18.0914 17.9762 15.8855 13.5832 15.8855ZM28.6665 15.8855C28.1197 15.8855 27.4975 15.9232 26.8377 15.9797C29.0247 17.5635 30.5519 19.694 30.5519 22.4844V27.198H41.8644V22.4844C41.8644 18.0914 33.0595 15.8855 28.6665 15.8855Z" fill="#171717"/>
</svg>
