<svg width="49" height="50" viewBox="0 0 49 50" fill="none" xmlns="http://www.w3.org/2000/svg">
<g id="Access time" clip-path="url(#clip0_2320_1877)">
<path id="Vector" d="M24.4797 4.58337C13.2097 4.58337 4.0835 13.73 4.0835 25C4.0835 36.27 13.2097 45.4167 24.4797 45.4167C35.7702 45.4167 44.9168 36.27 44.9168 25C44.9168 13.73 35.7702 4.58337 24.4797 4.58337ZM24.5002 41.3334C15.476 41.3334 8.16683 34.0242 8.16683 25C8.16683 15.9759 15.476 8.66671 24.5002 8.66671C33.5243 8.66671 40.8335 15.9759 40.8335 25C40.8335 34.0242 33.5243 41.3334 24.5002 41.3334Z" fill="#FEFEFE"/>
<path id="Vector_2" d="M25.521 14.7916H22.4585V27.0416L33.1772 33.4729L34.7085 30.9616L25.521 25.5104V14.7916Z" fill="#FEFEFE"/>
</g>
<defs>
<clipPath id="clip0_2320_1877">
<rect width="49" height="49" fill="white" transform="translate(0 0.5)"/>
</clipPath>
</defs>
</svg>
