<svg width="38" height="38" viewBox="0 0 38 38" fill="none" xmlns="http://www.w3.org/2000/svg">
<path d="M18.6664 28.7293C18.4465 29.3241 18.0678 29.8472 17.5714 30.2419C17.0751 30.6366 16.4801 30.8878 15.8511 30.9681C15.2221 31.0485 14.5831 30.955 14.0035 30.6977C13.4238 30.4405 12.9258 30.0294 12.5634 29.509C12.2009 28.9886 11.988 28.3789 11.9477 27.7461C11.9074 27.1132 12.0413 26.4814 12.3348 25.9193C12.6283 25.3572 13.0702 24.8862 13.6125 24.5575C14.1548 24.2288 14.7768 24.055 15.4109 24.0549H31.6051" stroke="black" stroke-width="2.31346" stroke-linecap="round" stroke-linejoin="round"/>
<path d="M23.2934 10.1266C23.0734 9.53188 22.6947 9.00874 22.1984 8.61405C21.702 8.21936 21.1071 7.9682 20.478 7.88784C19.849 7.80749 19.21 7.901 18.6304 8.15824C18.0508 8.41548 17.5527 8.82661 17.1903 9.34698C16.8279 9.86735 16.615 10.4771 16.5747 11.1099C16.5344 11.7428 16.6682 12.3746 16.9617 12.9367C17.2552 13.4988 17.6971 13.9698 18.2394 14.2985C18.7817 14.6272 19.4037 14.801 20.0378 14.8011H33.9186" stroke="black" stroke-width="2.31346" stroke-linecap="round" stroke-linejoin="round"/>
<path d="M10.5694 14.7536C10.3494 14.1588 9.97069 13.6357 9.47436 13.241C8.97803 12.8463 8.38304 12.5952 7.75402 12.5148C7.125 12.4344 6.48598 12.528 5.90637 12.7852C5.32675 13.0424 4.82869 13.4536 4.46628 13.9739C4.10386 14.4943 3.89094 15.104 3.85065 15.7369C3.81035 16.3697 3.94421 17.0015 4.2377 17.5637C4.53118 18.1258 4.97307 18.5968 5.51538 18.9254C6.05769 19.2541 6.67968 19.4279 7.31382 19.428H32.7618" stroke="black" stroke-width="2.31346" stroke-linecap="round" stroke-linejoin="round"/>
</svg>
