<svg width="28" height="34" viewBox="0 0 28 34" fill="none" xmlns="http://www.w3.org/2000/svg">
<path d="M23.4631 18.386C23.4255 14.197 26.8884 12.1591 27.0467 12.0642C25.0855 9.20099 22.0458 8.80978 20.9776 8.77859C18.4245 8.50955 15.948 10.3083 14.6475 10.3083C13.321 10.3083 11.3182 8.80458 9.15974 8.84877C6.38212 8.89166 3.78373 10.502 2.35846 13.0026C-0.582593 18.1014 1.61084 25.5941 4.42881 29.7155C5.83828 31.7352 7.48549 33.9876 9.64128 33.9083C11.7505 33.8225 12.5383 32.5631 15.0836 32.5631C17.6054 32.5631 18.3454 33.9083 20.544 33.8576C22.8077 33.8225 24.2328 31.8301 25.5931 29.7935C27.2221 27.4813 27.8761 25.2016 27.9022 25.0847C27.8502 25.0665 23.5072 23.4054 23.4631 18.386ZM19.3096 6.06741C20.4439 4.64684 21.2202 2.71418 21.0048 0.75293C19.3627 0.825713 17.3095 1.89017 16.1269 3.27955C15.0808 4.50387 14.1463 6.51061 14.3877 8.39778C16.2322 8.53555 18.1259 7.46589 19.3096 6.06741Z" fill="#FEFEFE"/>
</svg>
